# xmcd
#
# Track frame offsets: 
#        150
#        14273
#        28147
#        41947
#        55103
#        67638
#        80372
#        96826
#        111645
#        123983
#        138450
#        152152
#        164856
#        177749
#        190288
#        203778
#        217566
#        227876
#        240987
#        252857
#        265302
#        278095
#        290705
#        303469
#        315313
#
# Disc length: 4376 seconds
#
# Revision: 0
# Processed by: cddbd v1.5.1PL2 Copyright (c) Steve Scherf et al.
# Submitted via: ExactAudioCopy v0.95b3
#
DISCID=6d111619
DTITLE=Various Artist - 20th Century Blues cd3
DYEAR=2000
DGENRE=Blues
TTITLE0=Bumble Bee Slim - Brick In My Pillow
TTITLE1=Johnnie Temple - Lead Pencil Blues
TTITLE2=Washboard Sam - Mama Don't Allow No.2
TTITLE3=Little Brother Montgomery - Vicksburg Blues No.2
TTITLE4=Big Joe Williams - Baby, Pleas Don't Go
TTITLE5=Meade Lux Lewis - Honky Tonk Train Blues
TTITLE6=Albert Ammons - Boogie Woogie Stomp
TTITLE7=Bo Carter - Cigarette Blues
TTITLE8=Roosevelt Sykes - The Honeydripper
TTITLE9=Oscar Woods - Lone Wolf Blues
TTITLE10=Jazz Gillum - Sarah Jane
TTITLE11=Blind Boy Fuller - Untrue Blues
TTITLE12=Floyd Council - Runaway Man Blues
TTITLE13=Black Ace - Black Ace
TTITLE14=Sony Boy Williamson - Good Morning Little Schoolgirl
TTITLE15=Robert Lee McCoy - Prowling Nighthawk
TTITLE16=Robert Johnson - Stop Breakin' Down Blues
TTITLE17=Casey Bill Weldon - Red Hot Blues
TTITLE18=Son Bonds - Old Bachelor Blues
TTITLE19=Cripple Clarence Lofton - Don't Know
TTITLE20=Walter Davis - Cotton Farm Blues
TTITLE21=Tommy McClennan - Bottle It Up and Go
TTITLE22=Joe Turner - Roll'Em Pete
TTITLE23=Bukka White - Bukka's Jitterbug Swing
TTITLE24=Charles Spand - Alabama Blues
EXTD=
EXTT0=
EXTT1=
EXTT2=
EXTT3=
EXTT4=
EXTT5=
EXTT6=
EXTT7=
EXTT8=
EXTT9=
EXTT10=
EXTT11=
EXTT12=
EXTT13=
EXTT14=
EXTT15=
EXTT16=
EXTT17=
EXTT18=
EXTT19=
EXTT20=
EXTT21=
EXTT22=
EXTT23=
EXTT24=
PLAYORDER=
